<mxfile host="app.diagrams.net" modified="2023-10-06T11:39:43.417Z" agent="Mozilla/5.0 (Windows NT 10.0; Win64; x64) AppleWebKit/537.36 (KHTML, like Gecko) Chrome/117.0.0.0 Safari/537.36 Edg/117.0.2045.41" etag="ox7glharu8kiEjU9VXdB" version="21.8.2" type="github">
  <diagram name="第 1 页" id="I7xAf8riqftHUlAhAyMu">
    <mxGraphModel dx="1554" dy="857" grid="1" gridSize="10" guides="1" tooltips="1" connect="1" arrows="1" fold="1" page="1" pageScale="1" pageWidth="827" pageHeight="1169" math="0" shadow="0">
      <root>
        <mxCell id="0" />
        <mxCell id="1" parent="0" />
      </root>
    </mxGraphModel>
  </diagram>
</mxfile>
